{"title":"The.Bad.Lieutenant.Port.of.Call.New.Orleans.2009.SWESUB.DVDRip.X","uid":5648743,"size":1471098120,"categoryP":"video","categoryS":"movies","magnet":"?xt=urn:btih:beca2a1011668e0fb664d7aa7cb01ce53d13a54d&amp;dn=The.Bad.Lieutenant.Port.of.Call.New.Orleans.2009.SWESUB.DVDRip.X&amp;tr=udp%3A%2F%2Ftracker.openbittorrent.com%3A80&amp;tr=udp%3A%2F%2Fopen.demonii.com%3A1337&amp;tr=udp%3A%2F%2Ftracker.coppersurfer.tk%3A6969&amp;tr=udp%3A%2F%2Fexodus.desync.com%3A6969","seeders":0,"leechers":1,"uploader":"Zen_Bud","files":-1,"time":1277565031,"description":"The.Bad.Lieutenant.Port.of.Call.New.Orleans.2009.SWESUB.DVDRip.XviD.AC3.(5.1).-Zen_Bud\n\n\nGeneral\nComplete name          :The.Bad.Lieutenant.Port.of.Call.New.Orleans.avi\nFormat                           : AVI\nFormat/Info                      : Audio Video Interleave\nFile size                        : 1.37 GiB\nDuration                         : 1h 56mn\nOverall bit rate                 : 1 680 Kbps\n\nVideo\n\nFormat                           : MPEG-4 Visual\nCodec ID/Hint                    : XviD\nDuration                         : 1h 56mn\nBit rate                         : 1 285 Kbps\nWidth                            : 720 pixels\nHeight                           : 574 pixels\nDisplay aspect ratio             : 16:9\nStream size                      : 1.05 GiB (76%)\nWriting library                  : XviD 1.1.2 (UTC 2006-11-01)\n\nAudio\n\nFormat                           : AC-3\nDuration                         : 1h 56mn\nBit rate                         : 384 Kbps\nChannel(s)                       : 6 channels\nChannel positions                : Front: L C R, Side: L R, LFE\nSampling rate                    : 48.0 KHz\nStream size                      : 321 MiB (23%)\n\n\n","torrent":{"xt":"urn:btih:beca2a1011668e0fb664d7aa7cb01ce53d13a54d","amp;dn":"The.Bad.Lieutenant.Port.of.Call.New.Orleans.2009.SWESUB.DVDRip.X","amp;tr":["udp%3A%2F%2Ftracker.openbittorrent.com%3A80","udp%3A%2F%2Fopen.demonii.com%3A1337","udp%3A%2F%2Ftracker.coppersurfer.tk%3A6969","udp%3A%2F%2Fexodus.desync.com%3A6969"],"infoHash":"beca2a1011668e0fb664d7aa7cb01ce53d13a54d","infoHashBuffer":{"type":"Buffer","data":[190,202,42,16,17,102,142,15,182,100,215,170,124,176,28,229,61,19,165,77]},"announce":[],"urlList":[]}}